<svg width="54" height="54" viewBox="0 0 54 54" fill="none" xmlns="http://www.w3.org/2000/svg">
<path d="M27 4.5C24.0453 4.5 21.1194 5.08198 18.3896 6.21271C15.6598 7.34344 13.1794 9.00078 11.0901 11.0901C6.87053 15.3097 4.5 21.0326 4.5 27C4.5 36.945 10.9575 45.3825 19.89 48.375C21.015 48.555 21.375 47.8575 21.375 47.25V43.4475C15.1425 44.7975 13.815 40.4325 13.815 40.4325C12.78 37.8225 11.3175 37.125 11.3175 37.125C9.27 35.73 11.475 35.775 11.475 35.775C13.725 35.9325 14.9175 38.0925 14.9175 38.0925C16.875 41.5125 20.1825 40.5 21.465 39.96C21.6675 38.4975 22.2525 37.5075 22.8825 36.945C17.8875 36.3825 12.645 34.4475 12.645 25.875C12.645 23.3775 13.5 21.375 14.9625 19.7775C14.7375 19.215 13.95 16.875 15.1875 13.8375C15.1875 13.8375 17.0775 13.23 21.375 16.1325C23.1525 15.6375 25.0875 15.39 27 15.39C28.9125 15.39 30.8475 15.6375 32.625 16.1325C36.9225 13.23 38.8125 13.8375 38.8125 13.8375C40.05 16.875 39.2625 19.215 39.0375 19.7775C40.5 21.375 41.355 23.3775 41.355 25.875C41.355 34.47 36.09 36.36 31.0725 36.9225C31.8825 37.62 32.625 38.9925 32.625 41.085V47.25C32.625 47.8575 32.985 48.5775 34.1325 48.375C43.065 45.36 49.5 36.945 49.5 27C49.5 24.0453 48.918 21.1194 47.7873 18.3896C46.6566 15.6598 44.9992 13.1794 42.9099 11.0901C40.8206 9.00078 38.3402 7.34344 35.6104 6.21271C32.8806 5.08198 29.9547 4.5 27 4.5Z" fill="black"/>
</svg>
