<svg width="54" height="54" viewBox="0 0 54 54" fill="none" xmlns="http://www.w3.org/2000/svg">
<path d="M48.9375 1.26558H5.0625C4.06701 1.25544 3.10815 1.64064 2.39633 2.33664C1.68451 3.03265 1.27786 3.98261 1.26562 4.97808V49.0303C1.28008 50.0243 1.68769 50.9721 2.39927 51.6662C3.11086 52.3604 4.06845 52.7445 5.0625 52.7343H48.9375C49.9331 52.7422 50.8913 52.3557 51.6027 51.6593C52.3142 50.9628 52.721 50.0131 52.7344 49.0176V4.96542C52.7166 3.97287 52.3078 3.02744 51.5968 2.33463C50.8859 1.64182 49.9302 1.25764 48.9375 1.26558Z" fill="#0076B2"/>
<path d="M8.88485 20.5579H16.525V45.1405H8.88485V20.5579ZM12.707 8.32349C13.5833 8.32349 14.4399 8.58339 15.1685 9.07032C15.897 9.55724 16.4648 10.2493 16.7999 11.059C17.1351 11.8686 17.2226 12.7595 17.0513 13.6189C16.88 14.4783 16.4577 15.2676 15.8378 15.8869C15.2179 16.5063 14.4282 16.9278 13.5686 17.0983C12.7091 17.2687 11.8183 17.1804 11.0089 16.8445C10.1996 16.5085 9.50806 15.9401 9.02183 15.2111C8.5356 14.4821 8.27651 13.6252 8.27735 12.749C8.27846 11.5749 8.74565 10.4492 9.57626 9.61942C10.4069 8.7896 11.5329 8.32349 12.707 8.32349ZM21.3175 20.5579H28.6413V23.9329H28.7425C29.7634 22.0007 32.2525 19.963 35.9692 19.963C43.7064 19.9461 45.1408 25.0382 45.1408 31.6405V45.1405H37.5006V33.1804C37.5006 30.3327 37.45 26.6666 33.5308 26.6666C29.6116 26.6666 28.945 29.7716 28.945 32.9947V45.1405H21.3175V20.5579Z" fill="white"/>
</svg>
