<svg width="40" height="40" viewBox="0 0 40 40" fill="none" xmlns="http://www.w3.org/2000/svg">
<path d="M20 3.3999C10.8334 3.3999 3.33337 10.8832 3.33337 20.0999C3.33337 28.4332 9.43337 35.3499 17.4 36.5999V24.9332H13.1667V20.0999H17.4V16.4166C17.4 12.2332 19.8834 9.93324 23.7 9.93324C25.5167 9.93324 27.4167 10.2499 27.4167 10.2499V14.3666H25.3167C23.25 14.3666 22.6 15.6499 22.6 16.9666V20.0999H27.2334L26.4834 24.9332H22.6V36.5999C26.5274 35.9796 30.1037 33.9758 32.6833 30.95C35.2628 27.9242 36.6756 24.076 36.6667 20.0999C36.6667 10.8832 29.1667 3.3999 20 3.3999Z" fill="#897E9B"/>
</svg>
