<svg width="24" height="24" viewBox="0 0 24 24" fill="none" xmlns="http://www.w3.org/2000/svg">
<path d="M12 20.3999L11.616 19.9679C11.376 19.7279 5.76001 13.1039 5.76001 9.11988C5.76001 5.66388 8.54401 2.87988 12 2.87988C15.456 2.87988 18.24 5.66388 18.24 9.11988C18.24 13.1039 12.624 19.7279 12.384 20.0159L12 20.3999ZM12 3.83988C9.07201 3.83988 6.72001 6.19188 6.72001 9.11988C6.72001 12.1919 10.752 17.3759 12 18.9119C13.248 17.3759 17.28 12.1919 17.28 9.11988C17.28 6.19188 14.928 3.83988 12 3.83988Z" fill="#6F47EB"/>
<path d="M12 11.5202C10.656 11.5202 9.59998 10.4642 9.59998 9.12021C9.59998 7.77621 10.656 6.72021 12 6.72021C13.344 6.72021 14.4 7.77621 14.4 9.12021C14.4 10.4642 13.344 11.5202 12 11.5202ZM12 7.68021C11.184 7.68021 10.56 8.30421 10.56 9.12021C10.56 9.93621 11.184 10.5602 12 10.5602C12.816 10.5602 13.44 9.93621 13.44 9.12021C13.44 8.30421 12.816 7.68021 12 7.68021Z" fill="#6F47EB"/>
</svg>
