<svg width="12" height="14" viewBox="0 0 12 14" fill="none" xmlns="http://www.w3.org/2000/svg">
<path d="M5.99984 13.4168C2.75825 12.6964 0.166504 9.63799 0.166504 6.41683V2.91683L5.99984 0.583496L11.8332 2.91683V6.41683C11.8332 9.63916 9.24142 12.6964 5.99984 13.4168ZM1.33317 3.50016V6.41683C1.36651 7.76557 1.84088 9.06623 2.68369 10.1197C3.5265 11.1733 4.69131 11.9216 5.99984 12.2502C7.30836 11.9216 8.47317 11.1733 9.31598 10.1197C10.1588 9.06623 10.6332 7.76557 10.6665 6.41683V3.50016L5.99984 1.75016L1.33317 3.50016Z" fill="#9747FF"/>
<path d="M5.99984 6.41667C6.80525 6.41667 7.45817 5.76375 7.45817 4.95833C7.45817 4.15292 6.80525 3.5 5.99984 3.5C5.19442 3.5 4.5415 4.15292 4.5415 4.95833C4.5415 5.76375 5.19442 6.41667 5.99984 6.41667Z" fill="#9747FF"/>
<path d="M3.0835 8.75C3.37101 9.27395 3.79259 9.7121 4.30508 10.0196C4.81756 10.3271 5.40255 10.4929 6.00016 10.5C6.59778 10.4929 7.18276 10.3271 7.69525 10.0196C8.20773 9.7121 8.62931 9.27395 8.91683 8.75C8.90225 7.644 6.96733 7 6.00016 7C5.02775 7 3.09808 7.644 3.0835 8.75Z" fill="#9747FF"/>
</svg>
