<svg width="12" height="10" viewBox="0 0 12 10" fill="none" xmlns="http://www.w3.org/2000/svg">
<path d="M5.59876 1.45436C5.06689 0.919974 4.34457 0.618678 3.59062 0.616709C2.83667 0.61474 2.11279 0.912259 1.57813 1.44386C1.04654 1.97851 0.749017 2.70239 0.750986 3.45634C0.752955 4.2103 1.05425 4.93261 1.58863 5.46448L5.70726 9.58398C5.7893 9.666 5.90056 9.71208 6.01657 9.71208C6.13258 9.71208 6.24384 9.666 6.32588 9.58398L10.4235 5.48898C10.9548 4.95436 11.2522 4.23067 11.2502 3.47693C11.2482 2.72319 10.9471 2.00107 10.413 1.46923C10.1494 1.20405 9.83619 0.993416 9.49117 0.849361C9.14616 0.705307 8.77613 0.630659 8.40225 0.629684C8.02836 0.628708 7.65795 0.701425 7.31219 0.843678C6.96642 0.985931 6.65208 1.19493 6.38713 1.45873L5.99601 1.85073L5.59876 1.45436Z" fill="#9747FF"/>
</svg>
