<svg width="34" height="34" viewBox="0 0 34 34" fill="none" xmlns="http://www.w3.org/2000/svg">
<path fill-rule="evenodd" clip-rule="evenodd" d="M17.0001 3.66683C14.668 3.6664 12.3766 4.27764 10.3546 5.43954C8.33257 6.60144 6.65067 8.27336 5.47675 10.2884C4.30283 12.3035 3.67796 14.5912 3.6645 16.9232C3.65105 19.2553 4.24948 21.55 5.40006 23.5785C6.17774 22.5678 7.17744 21.7495 8.32187 21.1868C9.46629 20.6241 10.7248 20.3322 12.0001 20.3335H22.0001C23.2753 20.3322 24.5338 20.6241 25.6783 21.1868C26.8227 21.7495 27.8224 22.5678 28.6001 23.5785C29.7506 21.55 30.3491 19.2553 30.3356 16.9232C30.3222 14.5912 29.6973 12.3035 28.5234 10.2884C27.3494 8.27336 25.6675 6.60144 23.6455 5.43954C21.6235 4.27764 19.3321 3.6664 17.0001 3.66683ZM30.2384 27.1268C32.4668 24.2218 33.6721 20.6614 33.6667 17.0002C33.6667 7.79516 26.2051 0.333496 17.0001 0.333496C7.79506 0.333496 0.333393 7.79516 0.333393 17.0002C0.32789 20.6615 1.53324 24.2218 3.76173 27.1268L3.75339 27.1568L4.34506 27.8452C5.9082 29.6727 7.84903 31.1395 10.0338 32.1446C12.2185 33.1496 14.5952 33.669 17.0001 33.6668C20.3789 33.6731 23.6791 32.6467 26.4584 30.7252C27.6433 29.9065 28.7177 28.9385 29.6551 27.8452L30.2467 27.1568L30.2384 27.1268ZM17.0001 7.00016C15.674 7.00016 14.4022 7.52695 13.4645 8.46463C12.5268 9.40231 12.0001 10.6741 12.0001 12.0002C12.0001 13.3262 12.5268 14.598 13.4645 15.5357C14.4022 16.4734 15.674 17.0002 17.0001 17.0002C18.3261 17.0002 19.5979 16.4734 20.5356 15.5357C21.4733 14.598 22.0001 13.3262 22.0001 12.0002C22.0001 10.6741 21.4733 9.40231 20.5356 8.46463C19.5979 7.52695 18.3261 7.00016 17.0001 7.00016Z" fill="#9747FF"/>
</svg>
