<svg width="24" height="24" viewBox="0 0 24 24" fill="none" xmlns="http://www.w3.org/2000/svg">
<path fill-rule="evenodd" clip-rule="evenodd" d="M14.385 15.4458C13.0371 16.5227 11.3281 17.0427 9.60885 16.8989C7.88962 16.7551 6.29072 15.9584 5.14051 14.6725C3.99031 13.3867 3.37614 11.7092 3.42412 9.98462C3.47211 8.26005 4.17862 6.61932 5.39854 5.3994C6.61846 4.17947 8.2592 3.47296 9.98376 3.42498C11.7083 3.37699 13.3858 3.99117 14.6717 5.14137C15.9576 6.29157 16.7542 7.89048 16.898 9.60971C17.0418 11.3289 16.5219 13.038 15.445 14.3858L20.601 19.5408C20.6747 19.6095 20.7338 19.6923 20.7747 19.7843C20.8157 19.8763 20.8378 19.9756 20.8396 20.0763C20.8413 20.177 20.8228 20.277 20.7851 20.3704C20.7474 20.4638 20.6912 20.5486 20.62 20.6199C20.5488 20.6911 20.464 20.7472 20.3706 20.7849C20.2772 20.8227 20.1771 20.8412 20.0764 20.8394C19.9757 20.8376 19.8764 20.8156 19.7844 20.7746C19.6924 20.7336 19.6096 20.6745 19.541 20.6008L14.385 15.4458ZM6.45897 13.8838C5.72501 13.1498 5.22512 12.2146 5.02248 11.1966C4.81984 10.1785 4.92354 9.12326 5.32048 8.16412C5.71742 7.20498 6.38977 6.38504 7.25258 5.80792C8.11538 5.2308 9.12991 4.9224 10.1679 4.9217C11.206 4.921 12.2209 5.22804 13.0845 5.804C13.9481 6.37996 14.6215 7.19899 15.0198 8.15759C15.418 9.11619 15.5231 10.1713 15.3218 11.1897C15.1206 12.208 14.6219 13.1438 13.889 13.8788L13.884 13.8838L13.879 13.8878C12.8941 14.8704 11.5594 15.422 10.1681 15.4212C8.77688 15.4205 7.44281 14.8675 6.45897 13.8838Z" fill="#5E5D6D"/>
</svg>
