<svg width="40" height="40" viewBox="0 0 40 40" fill="none" xmlns="http://www.w3.org/2000/svg">
<path d="M36.6667 9.66653C35.4139 10.21 34.0891 10.5693 32.7334 10.7332C34.1637 9.87873 35.2355 8.5345 35.75 6.94986C34.406 7.74997 32.9346 8.31369 31.4 8.61653C30.3743 7.50415 29.0083 6.76369 27.5164 6.51128C26.0245 6.25887 24.4909 6.50879 23.1564 7.22184C21.8218 7.9349 20.7616 9.07075 20.1421 10.4513C19.5226 11.8318 19.3789 13.3788 19.7334 14.8499C17.0158 14.7124 14.3574 14.0048 11.9311 12.773C9.50482 11.5411 7.36478 9.81268 5.65004 7.69986C5.0486 8.75014 4.73257 9.93956 4.73337 11.1499C4.73124 12.2738 5.00707 13.3809 5.5363 14.3725C6.06553 15.364 6.83174 16.2094 7.76671 16.8332C6.68 16.8036 5.61652 16.512 4.66671 15.9832V16.0665C4.67485 17.6413 5.2267 19.165 6.2289 20.3798C7.2311 21.5946 8.62213 22.4259 10.1667 22.7332C9.57213 22.9141 8.95483 23.0095 8.33337 23.0165C7.90319 23.0115 7.47408 22.9725 7.05004 22.8999C7.48989 24.2545 8.34108 25.4384 9.48517 26.2868C10.6293 27.1352 12.0093 27.6058 13.4334 27.6332C11.0287 29.5253 8.05985 30.558 5.00004 30.5665C4.44293 30.5684 3.88627 30.535 3.33337 30.4665C6.45742 32.4836 10.0981 33.5544 13.8167 33.5499C16.3829 33.5765 18.9286 33.0916 21.3052 32.1233C23.6819 31.1551 25.8417 29.723 27.6587 27.9107C29.4757 26.0984 30.9133 23.9422 31.8876 21.568C32.862 19.1939 33.3534 16.6494 33.3334 14.0832V13.1999C34.6412 12.2245 35.7692 11.0289 36.6667 9.66653Z" fill="#897E9B"/>
</svg>
