<svg width="80" height="80" viewBox="0 0 80 80" fill="none" xmlns="http://www.w3.org/2000/svg">
<mask id="mask0_73_924" style="mask-type:luminance" maskUnits="userSpaceOnUse" x="6" y="13" width="74" height="54">
<path d="M40 53.3335C51.0457 53.3335 60 44.3792 60 33.3335C60 22.2878 51.0457 13.3335 40 13.3335C28.9543 13.3335 20 22.2878 20 33.3335C20 44.3792 28.9543 53.3335 40 53.3335Z" fill="white"/>
<path d="M56.667 43.3335H26.667V66.6668H56.667V43.3335Z" fill="white"/>
<path d="M36.667 26.667H26.667C15.6213 26.667 6.66699 35.6213 6.66699 46.667C6.66699 57.7127 15.6213 66.667 26.667 66.667H36.667C47.7127 66.667 56.667 57.7127 56.667 46.667C56.667 35.6213 47.7127 26.667 36.667 26.667Z" fill="white"/>
<path d="M63.3337 33.3335H53.3337C44.1289 33.3335 36.667 40.7954 36.667 50.0002C36.667 59.2049 44.1289 66.6668 53.3337 66.6668H63.3337C72.5384 66.6668 80.0003 59.2049 80.0003 50.0002C80.0003 40.7954 72.5384 33.3335 63.3337 33.3335Z" fill="white"/>
<path d="M46.6673 40H33.334V56.6667H46.6673V40Z" fill="black"/>
<path d="M40.0007 26.667L56.6673 43.3337H23.334L40.0007 26.667Z" fill="black"/>
</mask>
<g mask="url(#mask0_73_924)">
<path d="M80 0H0V80H80V0Z" fill="#5E5D6D"/>
</g>
</svg>
