<svg width="28" height="28" viewBox="0 0 28 28" fill="none" xmlns="http://www.w3.org/2000/svg">
<path d="M13.1968 6.9092C12.133 5.84044 10.6884 5.23784 9.18051 5.23391C7.6726 5.22997 6.22484 5.82501 5.15553 6.8882C4.09234 7.95751 3.4973 9.40526 3.50124 10.9132C3.50518 12.4211 4.10777 13.8657 5.17653 14.9295L13.4138 23.1685C13.5779 23.3325 13.8004 23.4246 14.0324 23.4246C14.2644 23.4246 14.4869 23.3325 14.651 23.1685L22.8463 14.9784C23.9089 13.9092 24.5036 12.4618 24.4997 10.9544C24.4958 9.44687 23.8935 8.00262 22.8253 6.93895C22.2981 6.40859 21.6716 5.98732 20.9816 5.69921C20.2916 5.4111 19.5515 5.26181 18.8038 5.25986C18.056 5.25791 17.3152 5.40334 16.6236 5.68784C15.9321 5.97235 15.3034 6.39035 14.7735 6.91795L13.9913 7.70195L13.1968 6.9092Z" fill="white"/>
</svg>
