<svg width="24" height="24" viewBox="0 0 24 24" fill="none" xmlns="http://www.w3.org/2000/svg">
<path d="M12.3574 21.9313C10.3739 21.9313 8.43501 21.3432 6.7858 20.2412C5.1366 19.1392 3.8512 17.573 3.09216 15.7405C2.33311 13.908 2.13451 11.8916 2.52147 9.94619C2.90843 8.00082 3.86356 6.21388 5.26609 4.81135C6.66863 3.40882 8.45556 2.45368 10.4009 2.06673C12.3463 1.67977 14.3627 1.87837 16.1952 2.63741C18.0277 3.39646 19.594 4.68186 20.6959 6.33106C21.7979 7.98026 22.3861 9.9192 22.3861 11.9027C22.3861 14.5624 21.3295 17.1133 19.4488 18.994C17.568 20.8747 15.0172 21.9313 12.3574 21.9313ZM12.3574 3.30669C10.6573 3.30669 8.99535 3.81084 7.58175 4.75538C6.16815 5.69992 5.06638 7.04243 4.41577 8.61314C3.76516 10.1839 3.59493 11.9122 3.9266 13.5797C4.25828 15.2471 5.07697 16.7788 6.27914 17.981C7.48131 19.1831 9.01297 20.0018 10.6804 20.3335C12.3479 20.6652 14.0763 20.4949 15.647 19.8443C17.2177 19.1937 18.5602 18.092 19.5047 16.6784C20.4493 15.2648 20.9534 13.6028 20.9534 11.9027C20.9534 9.62288 20.0478 7.43646 18.4357 5.8244C16.8236 4.21234 14.6372 3.30669 12.3574 3.30669Z" fill="#5E5D6D"/>
<path d="M15.6454 16.2006L11.6411 12.1963V5.45557H13.0738V11.6017L16.6554 15.1905L15.6454 16.2006Z" fill="#5E5D6D"/>
</svg>
